<svg xmlns="http://www.w3.org/2000/svg" xmlns:xlink="http://www.w3.org/1999/xlink" width="500" zoomAndPan="magnify" viewBox="0 0 375 374.999991" height="500" preserveAspectRatio="xMidYMid meet" version="1.0"><defs><clipPath id="f58b3fc0e0"><path d="M 15.96875 157 L 323 157 L 323 187 L 15.96875 187 Z M 15.96875 157 " clip-rule="nonzero"/></clipPath><clipPath id="1ee94ed9ff"><path d="M 83 212 L 322 212 L 322 224.367188 L 83 224.367188 Z M 83 212 " clip-rule="nonzero"/></clipPath></defs><rect x="-37.5" width="450" fill="#ffffff" y="-37.499999" height="449.999989" fill-opacity="1"/><rect x="-37.5" width="450" fill="#ffffff" y="-37.499999" height="449.999989" fill-opacity="1"/><rect x="-37.5" width="450" fill="#ffffff" y="-37.499999" height="449.999989" fill-opacity="1"/><g clip-path="url(#f58b3fc0e0)"><path fill="#000000" d="M 198.046875 177.929688 C 198.046875 179.308594 197.4375 180.308594 195.546875 180.308594 L 183.472656 180.308594 C 181.917969 180.308594 181.027344 179.859375 181.027344 178.421875 C 181.027344 176.984375 181.640625 176.273438 183.472656 176.273438 L 198.046875 176.273438 Z M 251.285156 172.179688 L 251.285156 170.628906 C 251.285156 169.191406 251.894531 168.25 253.84375 168.25 L 265.914062 168.25 C 267.574219 168.25 268.40625 168.742188 268.40625 170.296875 C 268.40625 171.617188 267.75 172.226562 266.03125 172.226562 Z M 282.980469 161.523438 L 282.980469 186.929688 L 295.191406 186.929688 L 295.191406 168.480469 L 305.152344 168.480469 C 308.542969 168.480469 310.261719 169.535156 310.261719 172.789062 L 310.261719 186.988281 L 322.449219 186.988281 L 322.449219 171.789062 C 322.449219 164.664062 318.507812 161.570312 307.378906 161.570312 Z M 253 161.523438 C 243.1875 161.523438 239.257812 164.777344 239.257812 172.125 L 239.257812 177.160156 C 239.257812 183.503906 243.1875 186.929688 252.054688 186.929688 L 277.828125 186.929688 L 277.828125 180.296875 L 254.441406 180.296875 C 252.136719 180.296875 251.339844 179.628906 251.339844 177.917969 L 251.339844 176.871094 L 269.789062 176.871094 C 276.15625 176.871094 279.753906 174.882812 279.753906 170.132812 L 279.753906 168.984375 C 279.753906 164.675781 277.597656 161.582031 266.792969 161.582031 Z M 213.796875 186.929688 L 225.984375 186.929688 L 225.984375 170.296875 C 225.984375 169.144531 226.433594 168.46875 227.933594 168.46875 L 237.355469 168.46875 L 237.355469 161.570312 L 223.804688 161.570312 C 216.542969 161.570312 213.773438 164.273438 213.773438 168.800781 Z M 172.136719 161.523438 L 172.136719 168.214844 L 195.027344 168.214844 C 197.332031 168.214844 198.082031 168.996094 198.082031 170.652344 L 198.082031 171.628906 L 179.703125 171.628906 C 172 171.628906 169.683594 174.789062 169.683594 178.8125 L 169.683594 179.800781 C 169.683594 185.390625 174.167969 186.929688 182.976562 186.929688 L 196.503906 186.929688 C 206.085938 186.929688 210.234375 184.78125 210.234375 177.261719 L 210.234375 171.398438 C 210.234375 165.042969 206.304688 161.570312 197.390625 161.570312 Z M 99.195312 175.710938 C 99.195312 183.757812 103.289062 186.976562 113.875 186.976562 L 137.097656 186.976562 L 137.097656 180.078125 L 115.652344 180.078125 C 113.101562 180.078125 111.382812 178.929688 111.382812 175.273438 L 111.382812 173.113281 C 111.382812 169.847656 112.988281 168.515625 115.59375 168.515625 L 137.097656 168.515625 L 137.097656 161.617188 L 113.539062 161.617188 C 103.164062 161.617188 99.195312 165.972656 99.195312 172.941406 Z M 140.707031 157.535156 L 140.707031 186.976562 L 167.226562 186.976562 L 167.226562 180.078125 L 152.929688 180.078125 L 152.929688 157.535156 Z M 64.605469 173.996094 L 64.605469 157.535156 L 57.6875 157.535156 C 53.421875 157.535156 50.988281 159.238281 48.460938 161.238281 L 15.96875 186.976562 L 30.648438 186.976562 L 52.269531 169.523438 L 52.269531 186.976562 L 62.402344 186.976562 L 83.34375 169.410156 L 83.34375 186.976562 L 95.761719 186.976562 L 95.761719 157.535156 L 88.992188 157.535156 C 85.335938 157.535156 82.789062 159.03125 80.242188 161.121094 Z M 64.605469 173.996094 " fill-opacity="1" fill-rule="nonzero"/></g><path fill="#ff9800" d="M 351.761719 136.152344 C 344.957031 136.152344 335.375 138.175781 324.984375 141.96875 C 315.667969 145.347656 306.828125 149.6875 298.464844 154.996094 C 306.519531 152.042969 314.839844 150.492188 323.417969 150.339844 C 335.339844 150.339844 343.828125 154.9375 331.292969 170.835938 C 368.191406 146.695312 367.234375 136.210938 351.761719 136.210938 " fill-opacity="1" fill-rule="nonzero"/><g clip-path="url(#1ee94ed9ff)"><path fill="#000000" d="M 83.90625 212.417969 L 91.472656 212.417969 L 91.472656 214.636719 L 86.304688 214.636719 L 86.304688 217.257812 L 90.917969 217.257812 L 90.917969 219.488281 L 86.304688 219.488281 L 86.304688 224.085938 L 83.90625 224.085938 Z M 100.636719 218.359375 L 100.636719 218.164062 C 100.636719 214.648438 102.851562 212.1875 105.964844 212.1875 C 109.078125 212.1875 111.269531 214.625 111.269531 218.128906 L 111.269531 218.324219 C 111.269531 221.773438 109.042969 224.304688 105.941406 224.304688 C 102.839844 224.304688 100.636719 221.855469 100.636719 218.359375 Z M 108.710938 218.359375 L 108.710938 218.164062 C 108.710938 215.867188 107.554688 214.40625 105.90625 214.40625 C 104.257812 214.40625 103.140625 215.867188 103.140625 218.164062 L 103.140625 218.28125 C 103.140625 220.578125 104.292969 222.050781 105.964844 222.050781 C 107.636719 222.050781 108.742188 220.601562 108.742188 218.300781 Z M 121.382812 212.417969 L 125.796875 212.417969 C 127.015625 212.359375 128.070312 212.742188 128.96875 213.566406 C 129.6875 214.328125 130.019531 215.234375 129.960938 216.277344 C 129.980469 216.644531 129.941406 217.003906 129.847656 217.355469 C 129.757812 217.707031 129.613281 218.039062 129.417969 218.347656 C 129.222656 218.65625 128.984375 218.929688 128.707031 219.164062 C 128.425781 219.398438 128.117188 219.585938 127.78125 219.726562 L 130.28125 224.074219 L 127.503906 224.074219 L 125.335938 220.222656 L 123.8125 220.222656 L 123.8125 224.074219 L 121.371094 224.074219 Z M 125.613281 218.164062 C 125.863281 218.195312 126.105469 218.175781 126.347656 218.101562 C 126.585938 218.023438 126.796875 217.902344 126.984375 217.730469 C 127.167969 217.5625 127.308594 217.359375 127.402344 217.128906 C 127.496094 216.898438 127.539062 216.65625 127.527344 216.40625 C 127.527344 215.257812 126.800781 214.648438 125.566406 214.648438 L 123.824219 214.648438 L 123.824219 218.164062 Z M 140.117188 212.417969 L 142.667969 212.417969 L 145.285156 217.164062 L 147.878906 212.417969 L 150.4375 212.417969 L 150.4375 224.097656 L 148.050781 224.097656 L 148.050781 216.625 L 145.285156 221.453125 L 142.527344 216.660156 L 142.527344 224.097656 L 140.222656 224.097656 Z M 160.941406 219.542969 L 160.941406 212.417969 L 163.386719 212.417969 L 163.386719 219.589844 C 163.386719 221.246094 164.171875 222.0625 165.425781 222.0625 C 166.683594 222.0625 167.480469 221.257812 167.480469 219.636719 L 167.480469 212.417969 L 169.890625 212.417969 L 169.890625 219.519531 C 169.890625 222.75 168.113281 224.316406 165.394531 224.316406 C 162.671875 224.316406 160.941406 222.761719 160.941406 219.542969 Z M 180.394531 212.417969 L 182.828125 212.417969 L 182.828125 221.902344 L 187.578125 221.902344 L 187.578125 224.128906 L 180.394531 224.128906 Z M 201.035156 212.324219 L 203.339844 212.324219 L 207.558594 224.097656 L 205.070312 224.097656 L 204.171875 221.613281 L 200.132812 221.613281 L 199.304688 224.097656 L 196.871094 224.097656 Z M 203.433594 219.417969 L 202.152344 215.601562 L 200.859375 219.417969 Z M 230.910156 214.796875 L 229.121094 215.277344 L 228.730469 213.175781 L 231.589844 212.300781 L 233.273438 212.300781 L 233.273438 224.097656 L 230.875 224.097656 Z M 258.582031 214.636719 L 255.628906 214.636719 L 255.628906 212.417969 L 263.957031 212.417969 L 263.957031 214.714844 L 260.992188 214.714844 L 260.992188 224.175781 L 258.582031 224.175781 Z M 273.605469 212.417969 L 281.171875 212.417969 L 281.171875 214.601562 L 276.039062 214.601562 L 276.039062 217.128906 L 280.570312 217.128906 L 280.570312 219.3125 L 276.039062 219.3125 L 276.039062 221.921875 L 281.25 221.921875 L 281.25 224.121094 L 273.617188 224.121094 Z M 294.824219 212.324219 L 297.128906 212.324219 L 301.335938 224.097656 L 298.824219 224.097656 L 297.96875 221.613281 L 293.921875 221.613281 L 293.070312 224.152344 L 290.625 224.152344 Z M 297.222656 219.417969 L 295.953125 215.601562 L 294.660156 219.417969 Z M 310.929688 212.417969 L 313.457031 212.417969 L 316.074219 217.164062 L 318.691406 212.417969 L 321.261719 212.417969 L 321.261719 224.097656 L 318.875 224.097656 L 318.875 216.625 L 316.109375 221.453125 L 313.351562 216.660156 L 313.351562 224.097656 L 310.976562 224.097656 Z M 310.929688 212.417969 " fill-opacity="1" fill-rule="nonzero"/></g></svg>