<svg xmlns="http://www.w3.org/2000/svg" xmlns:xlink="http://www.w3.org/1999/xlink" width="500" zoomAndPan="magnify" viewBox="0 0 375 374.999991" height="500" preserveAspectRatio="xMidYMid meet" version="1.0"><rect x="-37.5" width="450" fill="#ffffff" y="-37.499999" height="449.999989" fill-opacity="1"/><rect x="-37.5" width="450" fill="#ffffff" y="-37.499999" height="449.999989" fill-opacity="1"/><rect x="-37.5" width="450" fill="#ffffff" y="-37.499999" height="449.999989" fill-opacity="1"/><path fill="#dfb33c" d="M 195.640625 133.949219 C 233.289062 133.949219 263.960938 164.621094 263.960938 202.273438 C 263.960938 239.921875 233.289062 270.640625 195.640625 270.640625 C 157.988281 270.640625 127.269531 239.921875 127.269531 202.273438 C 127.269531 164.621094 157.988281 133.949219 195.640625 133.949219 Z M 195.640625 133.949219 " fill-opacity="1" fill-rule="evenodd"/><path fill="#cc2229" d="M 198.613281 233.882812 C 200.5 233.320312 203.660156 230.628906 204.039062 228.128906 C 204.371094 225.628906 203.472656 222.9375 201.773438 226.570312 C 200.121094 230.253906 199.558594 231.574219 198.234375 232.140625 C 196.960938 232.75 196.769531 234.449219 198.613281 233.882812 Z M 333.605469 222.9375 C 335.441406 223.5 335.820312 224.066406 336.953125 225.25 C 338.085938 226.378906 338.980469 227.75 337.707031 228.691406 C 336.386719 229.636719 335.636719 229.824219 334.171875 228.316406 C 332.660156 226.757812 331.195312 224.449219 331.195312 224.449219 C 331.195312 224.449219 331.761719 222.324219 333.605469 222.9375 Z M 342.898438 231.195312 C 344.410156 231.570312 344.027344 231.761719 344.925781 233.320312 C 345.871094 234.828125 346.4375 236.761719 346.625 238.132812 C 346.8125 239.453125 346.8125 243.507812 344.925781 241.953125 C 343.085938 240.441406 341.953125 237.566406 341.578125 235.628906 C 341.246094 233.695312 341.433594 230.816406 342.898438 231.195312 Z M 342.898438 231.195312 " fill-opacity="1" fill-rule="evenodd"/><path fill="#cc2229" d="M 232.441406 164.808594 C 235.085938 162.308594 236.546875 160.1875 240.652344 160.984375 C 244.710938 161.742188 248.4375 165.375 250.703125 165.375 C 252.917969 165.375 257.164062 165.5625 259.8125 167.121094 C 262.40625 168.675781 264.621094 169.996094 265.1875 171.554688 C 265.753906 173.066406 265.375 173.867188 267.59375 173.679688 C 269.808594 173.492188 274.859375 172.5 277.644531 173.867188 C 280.429688 175.1875 283.402344 180 285.808594 180.378906 C 288.261719 180.804688 288.78125 181.9375 292.316406 181.746094 C 295.859375 181.5625 299.019531 182.125 302.9375 184.8125 C 306.851562 187.503906 312.042969 192.316406 316.144531 192.128906 C 320.203125 191.9375 324.875 192.128906 326.714844 189.816406 C 328.601562 187.503906 328.792969 182.503906 328.035156 180.570312 C 327.28125 178.679688 324.308594 173.066406 319.828125 170.1875 C 315.390625 167.308594 313.316406 164.429688 313.695312 162.6875 C 314.074219 160.988281 315.011719 156.738281 317.800781 155.5625 C 320.582031 154.429688 325.960938 153.863281 327.660156 152.304688 C 329.308594 150.75 331.578125 148.863281 331.578125 148.863281 C 331.578125 148.863281 332.660156 147.117188 332.28125 150.9375 C 331.953125 154.804688 332.28125 155.988281 330.066406 158.0625 C 327.851562 160.1875 326.148438 161.929688 323.933594 161.929688 C 321.714844 161.929688 318.929688 162.121094 320.773438 164.996094 C 322.660156 167.875 327.472656 169.621094 329.121094 173.066406 C 330.816406 176.558594 335.445312 181.746094 332.472656 188.871094 C 329.5 195.996094 322.46875 196.753906 320.773438 196.941406 C 319.117188 197.128906 315.011719 196.753906 313.503906 197.128906 C 312.042969 197.503906 310.53125 197.503906 310.53125 197.503906 C 310.53125 197.503906 311.097656 199.816406 310.53125 203.5 C 310.015625 207.132812 309.257812 210.8125 308.882812 211.945312 C 308.503906 213.125 308.882812 215.4375 310.53125 215.625 C 312.230469 215.8125 318.175781 216.378906 319.640625 216.378906 C 321.148438 216.378906 321.148438 216.945312 321.527344 218.3125 C 321.90625 219.636719 323.554688 223.882812 325.632812 225.816406 C 327.660156 227.75 330.820312 228.695312 331.386719 229.636719 C 331.953125 230.628906 331.765625 233.320312 333.417969 233.320312 C 335.113281 233.320312 336.953125 233.507812 336.953125 233.507812 L 339.738281 241.199219 L 334.171875 241.761719 C 334.171875 241.761719 331.765625 241.761719 331.007812 240.441406 C 330.253906 239.074219 328.933594 236.195312 324.5 236.382812 C 320.015625 236.570312 319.117188 236.949219 317.988281 235.4375 C 316.855469 233.882812 315.011719 230.011719 307.558594 230.25 C 300.152344 230.4375 301.425781 231.757812 300.152344 231.570312 C 298.832031 231.382812 296.425781 228.691406 295.105469 228.503906 C 293.832031 228.316406 292.695312 229.070312 291.5625 228.316406 C 290.476562 227.515625 287.882812 224.449219 287.882812 224.449219 L 286.5625 219.257812 C 286.5625 219.257812 286.5625 217.324219 289.535156 220.015625 C 292.507812 222.75 293.074219 225.015625 297.179688 225.820312 C 301.238281 226.574219 302.179688 227.140625 302.179688 227.140625 C 302.179688 227.140625 304.589844 226.953125 300.71875 225.253906 C 296.800781 223.503906 290.476562 216.757812 289.535156 213.503906 C 288.589844 210.203125 287.882812 205.4375 287.882812 205.4375 L 286.941406 205.625 L 286.375 213.128906 C 286.375 213.128906 286.375 216.570312 281.375 216.757812 C 276.324219 216.949219 272.972656 217.324219 269.621094 218.128906 C 266.324219 218.882812 262.78125 219.261719 262.78125 219.261719 C 262.78125 219.261719 260 219.449219 260 217.511719 C 260 215.625 261.085938 213.503906 261.085938 213.503906 L 259.8125 213.316406 C 259.8125 213.316406 256.835938 218.695312 254.949219 220.4375 C 253.113281 222.136719 249.003906 227.515625 249.003906 227.515625 C 249.003906 227.515625 246.597656 233.507812 249.761719 233.886719 C 252.921875 234.265625 253.867188 236.765625 256.273438 234.453125 C 258.683594 232.140625 261.464844 227.941406 261.464844 227.941406 C 261.464844 227.941406 263.492188 226.382812 265 226.574219 C 266.511719 226.761719 268.542969 226.761719 268.542969 226.761719 L 266.324219 233.507812 C 266.324219 233.507812 265.761719 234.453125 264.8125 234.261719 C 263.871094 234.074219 263.683594 234.261719 263.164062 235.820312 C 262.597656 237.328125 261.84375 240.253906 259.8125 241.011719 C 257.738281 241.765625 254.386719 242.332031 251.222656 240.445312 C 248.0625 238.511719 244.714844 237.140625 242.683594 237.140625 C 240.65625 237.140625 236.550781 234.640625 236.363281 230.820312 C 236.171875 226.953125 236.550781 222.753906 237.871094 220.4375 C 239.148438 218.128906 240.085938 216.191406 240.085938 216.191406 L 242.683594 216.757812 C 242.683594 216.757812 241.21875 220.4375 240.277344 223.128906 C 239.332031 225.820312 238.390625 228.886719 238.957031 230.632812 C 239.519531 232.328125 242.875 235.066406 242.304688 231.574219 C 241.742188 228.132812 241.410156 228.507812 242.117188 226.199219 C 242.875 223.886719 245.65625 218.128906 245.65625 218.128906 C 245.65625 218.128906 247.734375 215.015625 243.25 214.449219 C 238.769531 213.882812 238.390625 214.074219 238.246094 211.949219 C 238.058594 209.824219 237.871094 207.9375 237.871094 207.9375 C 237.871094 207.9375 236.925781 204.261719 235.984375 207.9375 C 235.085938 211.570312 234.519531 211.007812 234.519531 211.007812 C 234.519531 211.007812 234.332031 212.328125 235.414062 212.703125 C 236.546875 213.128906 239.332031 215.628906 236.546875 215.816406 C 233.765625 216.007812 231.546875 216.007812 230.226562 215.015625 C 228.953125 214.074219 226.875 211.007812 226.6875 214.828125 C 226.5 218.695312 227.632812 220.019531 228.765625 221.574219 C 229.847656 223.128906 231.925781 224.640625 231.925781 224.640625 C 231.925781 224.640625 232.253906 225.820312 230.414062 226.574219 C 228.574219 227.332031 228.765625 228.699219 229.847656 229.074219 C 230.980469 229.453125 231.925781 230.015625 231.738281 232.140625 C 231.546875 234.261719 231.925781 236.765625 228.574219 235.820312 C 225.226562 234.832031 223.527344 233.507812 221.3125 233.320312 C 219.09375 233.132812 218.527344 232.140625 217.207031 232.5625 C 215.933594 232.945312 212.957031 233.886719 212.394531 232.945312 C 211.828125 231.953125 210.320312 230.015625 209.234375 232.5625 C 208.101562 235.066406 205.316406 235.441406 203.285156 236.386719 C 201.210938 237.328125 200.691406 236.386719 201.773438 235.441406 C 202.90625 234.453125 205.128906 232.140625 205.503906 230.015625 C 205.878906 227.941406 206.449219 226.382812 207.203125 225.25 C 207.910156 224.070312 208.097656 221.382812 206.445312 223.125 C 204.746094 224.824219 205.316406 222.136719 205.6875 220.011719 C 206.066406 217.9375 206.445312 214.445312 207.71875 211.753906 C 209.039062 209.066406 209.417969 199.0625 211.257812 194.625 C 216.070312 183.210938 223.617188 173.300781 232.441406 164.808594 Z M 229.28125 201.375 C 230.792969 201.1875 231.171875 200.429688 231.171875 201.753906 C 231.171875 203.121094 231.355469 203.6875 230.414062 204.066406 C 229.46875 204.441406 228.007812 203.6875 228.007812 203.6875 Z M 313.171875 225.4375 C 314.824219 225.011719 316.472656 224.828125 318.929688 226.570312 C 321.335938 228.316406 323.363281 231.382812 323.363281 231.382812 C 323.363281 231.382812 324.117188 234.828125 321.523438 232.5625 C 318.929688 230.25 316.664062 227.136719 315.203125 227.328125 C 313.691406 227.515625 311.472656 225.816406 313.171875 225.4375 Z M 218.335938 228.695312 C 216.824219 228.316406 216.636719 224.449219 219.464844 226.382812 C 222.25 228.316406 219.796875 229.070312 218.335938 228.695312 Z M 213.472656 212.933594 L 216.636719 205.621094 C 216.636719 205.621094 217.957031 204.441406 218.710938 205.433594 C 219.464844 206.375 219.984375 207.132812 219.984375 207.132812 C 219.984375 207.132812 222.0625 207.695312 221.117188 205.621094 C 220.535156 204.300781 220.046875 202.949219 219.652344 201.5625 C 219.652344 201.5625 218.332031 197.503906 216.117188 202.316406 C 213.847656 207.132812 211.820312 211.945312 211.820312 211.945312 C 211.820312 211.945312 212.390625 215.199219 213.472656 212.933594 Z M 235.085938 178.066406 C 235.085938 178.066406 238.386719 175.800781 237.679688 179.246094 C 236.925781 182.691406 235.601562 187.691406 235.414062 189.25 C 235.269531 190.804688 234.328125 191.9375 233.761719 190.378906 C 233.199219 188.871094 233.382812 185.003906 233.574219 182.878906 C 233.761719 180.800781 234.707031 179.058594 234.707031 179.058594 Z M 190.496094 233.882812 C 188.609375 233.320312 185.449219 230.628906 185.070312 228.128906 C 184.691406 225.628906 185.636719 222.9375 187.335938 226.570312 C 188.988281 230.253906 189.554688 231.574219 190.828125 232.140625 C 192.148438 232.75 192.335938 234.449219 190.496094 233.882812 Z M 55.507812 222.9375 C 53.621094 223.5 53.238281 224.066406 52.15625 225.25 C 51.023438 226.378906 50.082031 227.75 51.402344 228.691406 C 52.722656 229.636719 53.429688 229.824219 54.941406 228.316406 C 56.402344 226.757812 57.914062 224.449219 57.914062 224.449219 C 57.914062 224.449219 57.34375 222.324219 55.507812 222.9375 Z M 46.210938 231.195312 C 44.699219 231.570312 45.078125 231.761719 44.132812 233.320312 C 43.238281 234.828125 42.671875 236.761719 42.484375 238.132812 C 42.292969 239.453125 42.292969 243.507812 44.132812 241.953125 C 46.023438 240.441406 47.105469 237.566406 47.484375 235.628906 C 47.863281 233.695312 47.671875 230.816406 46.210938 231.195312 Z M 46.210938 231.195312 " fill-opacity="1" fill-rule="evenodd"/><path fill="#cc2229" d="M 156.617188 164.808594 C 154.023438 162.308594 152.558594 160.1875 148.453125 160.984375 C 144.351562 161.742188 140.625 165.375 138.40625 165.375 C 136.1875 165.375 131.894531 165.5625 129.300781 167.121094 C 126.703125 168.679688 124.488281 169.996094 123.921875 171.554688 C 123.355469 173.066406 123.734375 173.867188 121.515625 173.679688 C 119.25 173.492188 114.25 172.5 111.464844 173.867188 C 108.679688 175.1875 105.707031 180 103.253906 180.378906 C 100.847656 180.804688 100.28125 181.9375 96.792969 181.746094 C 93.253906 181.5625 90.089844 182.125 86.175781 184.8125 C 82.261719 187.503906 77.070312 192.316406 72.964844 192.128906 C 68.859375 191.9375 64.234375 192.128906 62.394531 189.816406 C 60.507812 187.503906 60.320312 182.503906 61.074219 180.570312 C 61.828125 178.679688 64.800781 173.066406 69.238281 170.1875 C 73.71875 167.308594 75.75 164.429688 75.371094 162.6875 C 74.992188 160.988281 74.09375 156.738281 71.3125 155.5625 C 68.527344 154.429688 63.101562 153.863281 61.449219 152.304688 C 59.753906 150.75 57.535156 148.863281 57.535156 148.863281 C 57.535156 148.863281 56.402344 147.117188 56.777344 150.9375 C 57.15625 154.804688 56.777344 155.988281 59.042969 158.0625 C 61.261719 160.1875 62.914062 161.929688 65.175781 161.929688 C 67.394531 161.929688 70.179688 162.121094 68.339844 164.996094 C 66.453125 167.875 61.636719 169.621094 59.9375 173.066406 C 58.289062 176.558594 53.617188 181.746094 56.589844 188.871094 C 59.5625 195.996094 66.636719 196.753906 68.339844 196.941406 C 69.988281 197.128906 74.09375 196.753906 75.558594 197.128906 C 77.066406 197.503906 78.53125 197.503906 78.53125 197.503906 C 78.53125 197.503906 78.011719 199.816406 78.53125 203.5 C 79.097656 207.132812 79.851562 210.8125 80.226562 211.945312 C 80.605469 213.125 80.226562 215.4375 78.53125 215.625 C 76.878906 215.8125 70.933594 216.378906 69.425781 216.378906 C 67.960938 216.378906 67.960938 216.945312 67.582031 218.3125 C 67.207031 219.636719 65.554688 223.882812 63.476562 225.816406 C 61.449219 227.75 58.289062 228.695312 57.722656 229.636719 C 57.15625 230.628906 57.34375 233.320312 55.691406 233.320312 C 53.992188 233.320312 52.15625 233.507812 52.15625 233.507812 L 49.371094 241.199219 L 54.9375 241.761719 C 54.9375 241.761719 57.34375 241.761719 58.101562 240.441406 C 58.855469 239.074219 60.128906 236.195312 64.609375 236.382812 C 69.046875 236.570312 69.988281 236.949219 71.121094 235.4375 C 72.207031 233.882812 74.09375 230.011719 81.503906 230.25 C 88.957031 230.4375 87.636719 231.757812 88.957031 231.570312 C 90.28125 231.382812 92.683594 228.691406 93.960938 228.503906 C 95.28125 228.316406 96.414062 229.070312 97.5 228.316406 C 98.628906 227.515625 101.226562 224.449219 101.226562 224.449219 L 102.546875 219.257812 C 102.546875 219.257812 102.546875 217.324219 99.574219 220.015625 C 96.601562 222.75 96.035156 225.015625 91.929688 225.820312 C 87.824219 226.574219 86.929688 227.140625 86.929688 227.140625 C 86.929688 227.140625 84.476562 226.953125 88.390625 225.253906 C 92.308594 223.503906 98.628906 216.757812 99.574219 213.503906 C 100.472656 210.203125 101.226562 205.4375 101.226562 205.4375 L 102.167969 205.625 L 102.734375 213.128906 C 102.734375 213.128906 102.734375 216.570312 107.738281 216.757812 C 112.738281 216.949219 116.089844 217.324219 119.4375 218.128906 C 122.789062 218.882812 126.328125 219.261719 126.328125 219.261719 C 126.328125 219.261719 129.113281 219.449219 129.113281 217.511719 C 129.113281 215.625 128.027344 213.503906 128.027344 213.503906 L 129.300781 213.316406 C 129.300781 213.316406 132.273438 218.695312 134.160156 220.4375 C 136.003906 222.136719 140.109375 227.515625 140.109375 227.515625 C 140.109375 227.515625 142.515625 233.507812 139.351562 233.886719 C 136.191406 234.265625 135.246094 236.765625 132.84375 234.453125 C 130.4375 232.140625 127.652344 227.941406 127.652344 227.941406 C 127.652344 227.941406 125.574219 226.382812 124.113281 226.574219 C 122.601562 226.761719 120.574219 226.761719 120.574219 226.761719 L 122.792969 233.507812 C 122.792969 233.507812 123.359375 234.453125 124.300781 234.261719 C 125.199219 234.074219 125.386719 234.261719 125.953125 235.820312 C 126.519531 237.328125 127.273438 240.253906 129.304688 241.011719 C 131.332031 241.765625 134.679688 242.332031 137.84375 240.445312 C 141.007812 238.511719 144.355469 237.140625 146.429688 237.140625 C 148.460938 237.140625 152.566406 234.640625 152.753906 230.820312 C 152.941406 226.953125 152.566406 222.753906 151.246094 220.4375 C 149.921875 218.128906 149.027344 216.191406 149.027344 216.191406 L 146.429688 216.757812 C 146.429688 216.757812 147.894531 220.4375 148.835938 223.128906 C 149.78125 225.820312 150.679688 228.886719 150.113281 230.632812 C 149.59375 232.328125 146.242188 235.066406 146.761719 231.574219 C 147.328125 228.132812 147.707031 228.507812 146.949219 226.199219 C 146.242188 223.886719 143.460938 218.128906 143.460938 218.128906 C 143.460938 218.128906 141.382812 215.015625 145.867188 214.449219 C 150.300781 213.882812 150.679688 214.074219 150.867188 211.949219 C 151.058594 209.828125 151.246094 207.9375 151.246094 207.9375 C 151.246094 207.9375 152.191406 204.261719 153.085938 207.9375 C 154.03125 211.570312 154.597656 211.007812 154.597656 211.007812 C 154.597656 211.007812 154.785156 212.328125 153.652344 212.703125 C 152.570312 213.128906 149.785156 215.628906 152.570312 215.816406 C 155.351562 216.007812 157.570312 216.007812 158.890625 215.015625 C 160.164062 214.074219 162.242188 211.007812 162.382812 214.828125 C 162.570312 218.695312 161.484375 220.019531 160.355469 221.574219 C 159.269531 223.128906 157.191406 224.640625 157.191406 224.640625 C 157.191406 224.640625 156.816406 225.820312 158.703125 226.574219 C 160.542969 227.332031 160.355469 228.699219 159.269531 229.074219 C 158.136719 229.453125 157.191406 230.015625 157.378906 232.140625 C 157.570312 234.261719 157.191406 236.765625 160.542969 235.820312 C 163.894531 234.832031 165.542969 233.507812 167.808594 233.320312 C 170.027344 233.132812 170.589844 232.140625 171.867188 232.5625 C 173.1875 232.945312 176.160156 233.886719 176.726562 232.945312 C 177.292969 231.953125 178.753906 230.015625 179.886719 232.5625 C 181.019531 235.066406 183.804688 235.441406 185.832031 236.386719 C 187.863281 237.328125 188.429688 236.386719 187.34375 235.441406 C 186.210938 234.453125 183.992188 232.140625 183.617188 230.015625 C 183.238281 227.941406 182.675781 226.382812 181.917969 225.25 C 181.164062 224.070312 181.023438 221.382812 182.675781 223.125 C 184.324219 224.824219 183.804688 222.136719 183.429688 220.011719 C 183.050781 217.9375 182.675781 214.445312 181.351562 211.753906 C 180.078125 209.066406 179.699219 199.0625 177.863281 194.625 C 173.039062 183.210938 165.488281 173.300781 156.617188 164.808594 Z M 159.78125 201.375 C 158.316406 201.1875 157.941406 200.429688 157.941406 201.753906 C 157.941406 203.121094 157.75 203.6875 158.695312 204.066406 C 159.59375 204.441406 161.101562 203.6875 161.101562 203.6875 Z M 75.9375 225.4375 C 74.285156 225.011719 72.585938 224.828125 70.179688 226.570312 C 67.773438 228.316406 65.699219 231.382812 65.699219 231.382812 C 65.699219 231.382812 64.988281 234.828125 67.585938 232.5625 C 70.179688 230.25 72.398438 227.136719 73.910156 227.328125 C 75.371094 227.515625 77.632812 225.816406 75.9375 225.4375 Z M 170.773438 228.695312 C 172.238281 228.316406 172.425781 224.449219 169.640625 226.382812 C 166.855469 228.316406 169.265625 229.070312 170.773438 228.695312 Z M 175.585938 212.933594 L 172.421875 205.621094 C 172.421875 205.621094 171.148438 204.441406 170.394531 205.433594 C 169.640625 206.375 169.074219 207.132812 169.074219 207.132812 C 169.074219 207.132812 167.046875 207.695312 167.988281 205.621094 C 168.886719 203.496094 169.453125 201.5625 169.453125 201.5625 C 169.453125 201.5625 170.773438 197.503906 172.992188 202.316406 C 175.210938 207.132812 177.285156 211.945312 177.285156 211.945312 C 177.285156 211.945312 176.71875 215.199219 175.585938 212.933594 Z M 154.023438 178.066406 C 154.023438 178.066406 150.671875 175.800781 151.429688 179.246094 C 152.183594 182.691406 153.457031 187.691406 153.644531 189.25 C 153.835938 190.804688 154.777344 191.9375 155.34375 190.378906 C 155.910156 188.871094 155.722656 185.003906 155.535156 182.878906 C 155.34375 180.800781 154.402344 179.058594 154.402344 179.058594 Z M 154.023438 178.066406 " fill-opacity="1" fill-rule="evenodd"/><path fill="#e8d53d" d="M 89.144531 71.242188 L 89.144531 120.171875 L 99.054688 120.171875 L 99.054688 80.539062 L 103.773438 80.539062 C 103.773438 80.539062 110.945312 80.257812 110.945312 86.863281 C 110.945312 93.421875 104.53125 93.277344 104.53125 93.277344 L 102.171875 93.277344 L 102.171875 104.554688 L 112.082031 120.171875 L 123.59375 120.171875 L 109.863281 100.074219 C 109.863281 100.074219 121.234375 99.085938 121.234375 86.863281 C 121.234375 74.597656 112.550781 71.246094 101.179688 71.246094 Z M 139.300781 89.316406 C 123.589844 89.316406 123.355469 103.941406 123.355469 105.6875 C 123.355469 107.386719 123.589844 121.023438 140.054688 121.023438 C 145.386719 121.023438 150.105469 118.898438 153.550781 113.613281 L 146 109.886719 C 146 109.886719 144.019531 113.710938 140.054688 113.710938 C 135.949219 113.710938 133.121094 110.738281 133.121094 107.152344 L 154.542969 107.152344 L 154.542969 104.792969 C 154.542969 104.792969 155.15625 89.316406 139.300781 89.316406 Z M 133.261719 101.582031 C 133.261719 101.582031 133.875 96.015625 139.210938 96.015625 C 144.542969 96.015625 145.011719 101.582031 145.011719 101.582031 Z M 181.816406 70.253906 L 181.816406 92.902344 C 181.816406 92.902344 177.238281 89.316406 172 89.316406 C 166.667969 89.316406 157.894531 93.042969 157.894531 104.558594 C 157.894531 116.210938 165.441406 120.503906 171.90625 120.503906 C 178.324219 120.503906 181.910156 116.304688 181.910156 116.304688 L 181.910156 120.171875 L 191.203125 120.171875 L 191.203125 70.253906 Z M 174.59375 112.480469 C 174.125 112.480469 167.941406 112.480469 167.941406 105.027344 C 167.941406 97.480469 174.59375 97.242188 174.59375 97.242188 C 174.59375 97.242188 182.191406 97.476562 182.191406 104.792969 C 182.191406 112.246094 175.113281 112.480469 174.59375 112.480469 Z M 244.472656 90.917969 L 253.863281 90.917969 L 253.863281 107.667969 C 253.863281 107.667969 254.242188 113.238281 259.429688 113.238281 C 264.765625 113.238281 264.765625 107.667969 264.765625 107.667969 L 264.765625 90.917969 L 274.292969 90.917969 L 274.292969 108.140625 C 274.292969 108.140625 275.425781 121.632812 259.714844 121.632812 C 243.957031 121.632812 244.472656 109.886719 244.472656 107.667969 Z M 279.765625 70.253906 L 289.0625 70.253906 L 289.0625 120.171875 L 279.765625 120.171875 Z M 295.617188 70.253906 L 304.773438 70.253906 L 304.773438 120.171875 L 295.617188 120.171875 Z M 233.433594 94.035156 C 233.433594 94.035156 237.773438 90.683594 237.773438 84.363281 C 237.773438 78.039062 233.054688 72.234375 223.289062 72.234375 L 206.820312 72.234375 L 206.820312 120.171875 L 227.113281 120.171875 C 227.113281 120.171875 241.59375 119.890625 241.59375 106.773438 C 241.59375 99.082031 238.621094 96.25 233.433594 94.035156 Z M 225.503906 111.726562 L 216.589844 111.726562 L 216.589844 80.632812 L 221.308594 80.632812 C 221.308594 80.632812 227.726562 80.164062 227.726562 85.730469 C 227.726562 91.296875 222.675781 90.824219 222.675781 90.824219 L 219.703125 90.824219 L 219.703125 99.222656 L 225.507812 99.222656 C 227.019531 99.222656 231.832031 99.980469 231.832031 105.40625 C 231.828125 110.972656 225.503906 111.726562 225.503906 111.726562 Z M 225.503906 111.726562 " fill-opacity="1" fill-rule="evenodd"/></svg>